# xmcd
#
# Track frame offsets:
#	150
#	18728
#	38295
#	58775
#	81128
#	100877
#	125520
#	148929
#	172001
#	189021
#	211554
#	231983
#	254448
#
# Disc length: 3635 seconds
#
# Revision: 1
# Processed by: cddbd v1.5.1PL0 Copyright (c) Steve Scherf et al.
# Submitted via: CDex 1.50Beta5
#
DISCID=ad0e310d
DTITLE=Every Little Thing - SINGLE COLLECTION DISC-2
DYEAR=1900
DGENRE=
TTITLE0=Future World
TTITLE1=ファンダメンタル・ラブ
TTITLE2=For the moment
TTITLE3=ささやかな祈り
TTITLE4=出会った頃のように
TTITLE5=キヲク
TTITLE6=Time goes By
TTITLE7=Graceful World
TTITLE8=NECESSARY
TTITLE9=愛のかけら
TTITLE10=Someday,Someplace
TTITLE11=sure
TTITLE12=キモチ
EXTD=
EXTT0=
EXTT1=
EXTT2=
EXTT3=
EXTT4=
EXTT5=
EXTT6=
EXTT7=
EXTT8=
EXTT9=
EXTT10=
EXTT11=
EXTT12=
PLAYORDER=
